<svg width="48" height="46" viewBox="0 0 48 46" fill="none" xmlns="http://www.w3.org/2000/svg">
<path d="M27.011 1.02442C26.9373 1.05389 21.3962 2.10023 14.7055 3.36762C8.01487 4.62028 2.19371 5.72556 1.76633 5.81398L1 5.96136V23.0417V40.1073L1.3979 40.1957C3.10741 40.5494 26.9668 45 27.1142 45C27.2616 45 27.291 44.101 27.2616 40.2841L27.2174 35.5682H36.4133H45.5945L46.243 35.2293C47.4956 34.5956 47.422 35.3324 47.422 23.0417C47.422 13.0204 47.4072 12.1657 47.1567 11.7088C47.024 11.4288 46.7146 11.0604 46.4935 10.8983C46.0809 10.5888 45.8893 10.5888 36.6933 10.5151L27.3058 10.4414L27.2763 5.7403C27.2616 3.1613 27.2321 1.02442 27.2026 1.00968C27.1731 0.994942 27.0995 0.994942 27.011 1.02442ZM46.0956 12.4162C46.0956 12.8141 45.5061 13.3299 39.4492 18.1784C35.7944 21.1111 32.729 23.4691 32.6406 23.4248C32.5375 23.3806 31.2995 22.408 29.8848 21.2438L27.3058 19.1216L27.2616 15.5552L27.2321 11.9888H36.6638H46.0956V12.4162ZM46.0956 24.2943V34.0945L36.7081 34.0651L27.3058 34.0208L27.2616 27.4186C27.2468 23.7933 27.2763 20.8311 27.35 20.8311C27.4089 20.8311 28.6174 21.7596 30.0174 22.8943C31.4174 24.0291 32.6553 24.9575 32.7585 24.9575C32.8617 24.9575 35.868 22.6143 39.4197 19.7406C42.9713 16.8668 45.9188 14.5089 45.9925 14.5089C46.0514 14.4942 46.0956 18.9006 46.0956 24.2943ZM16.1056 15.4963C17.1666 16.0121 18.3456 17.2205 18.9056 18.4142C20.0846 20.9048 19.9814 24.8691 18.6698 27.3302C18.0361 28.4944 16.7393 29.7029 15.634 30.1155C14.4108 30.5724 12.4802 30.4839 11.3013 29.9239C10.3286 29.4523 9.14963 28.2734 8.61909 27.227C7.3517 24.7365 7.33696 21.0374 8.57488 18.5469C9.78333 16.1152 11.3749 15.0984 13.9687 15.0836C15.0445 15.0836 15.3392 15.1426 16.1056 15.4963Z" fill="black" stroke="black"/>
<path d="M14.6554 2.96678L14.6543 2.96696C7.54107 4.27723 1.36223 5.43152 0.914049 5.52275L0.914059 5.5228L0.90727 5.52408L0.5 5.60114V23.0436V40.4824L0.526042 40.4881C1.44163 40.6741 8.27951 41.9266 14.9234 43.1354C18.2471 43.7401 21.5187 44.3332 23.9692 44.7751C25.1945 44.9961 26.2141 45.1792 26.9322 45.3071C27.1504 45.3459 27.3405 45.3796 27.5 45.4077V41V36.6433V34.5V31V27.5V20.5V19V17V15V11.5V10V4.94987C27.4922 3.59887 27.5 2.36979 27.5059 1.47831L27.5061 1.43999C27.5085 1.08786 27.5104 0.7915 27.5109 0.562756C27.4894 0.566959 27.4666 0.571411 27.4425 0.576103C27.2589 0.611794 26.9937 0.662411 26.6564 0.726242C25.9817 0.853947 25.0157 1.03507 23.8304 1.25655C22.1995 1.5613 20.1526 1.94261 17.8766 2.3666C16.8442 2.55893 15.7646 2.76004 14.6554 2.96678Z" fill="#DA1A32" stroke="#DA1A32"/>
<path d="M12.3359 16.8385L12.3579 16.8286L12.3803 16.8194C12.8532 16.6247 13.5465 16.5199 14.0115 16.5013L14.0355 16.5003L14.0594 16.5001C15.5577 16.4882 16.7565 17.2472 17.5088 18.4535C18.2184 19.5916 18.5189 21.0867 18.5189 22.716C18.5189 24.3373 18.2123 25.8252 17.5059 26.9606C16.7623 28.1558 15.5767 28.9319 14.0862 28.9319C12.9727 28.9319 11.957 28.5516 11.158 27.7616C10.3947 27.0068 9.93136 25.9802 9.66433 24.8446C9.49552 24.1351 9.47707 23.1167 9.51893 22.2528C9.5607 21.3908 9.67709 20.3804 9.9142 19.7014L9.91841 19.6893L9.92282 19.6774C10.1432 19.0792 10.4919 18.5055 10.8733 18.0377C11.2351 17.5941 11.7388 17.1072 12.3359 16.8385Z" fill="black" stroke="white" stroke-width="3"/>
</svg>
