<svg width="46" height="41" viewBox="0 0 46 41" fill="none" xmlns="http://www.w3.org/2000/svg">
<g clip-path="url(#clip0_603_18)">
<path fill-rule="evenodd" clip-rule="evenodd" d="M7.47275 0H38.5295C39.1202 0 39.6612 0.296384 40.0531 0.771598L40.0561 0.774775L40.0587 0.77886L40.0621 0.782037C40.4536 1.26043 40.6951 1.91311 40.6951 2.62888V7.97742H42.6803C43.5948 7.97742 44.4247 8.43311 45.0244 9.16023C45.6264 9.89007 46 10.9 46 12.0038V28.9967C46 30.1014 45.6242 31.1081 45.0229 31.838C44.9773 31.8929 44.9297 31.9451 44.8807 31.9932C44.2933 32.6304 43.5192 33.0226 42.6803 33.0226H40.6951V38.3743C40.6951 39.0969 40.4507 39.7527 40.0587 40.2289C39.6675 40.7032 39.1258 41 38.5295 41H7.47275C6.88203 41 6.3411 40.7059 5.94616 40.2289L5.94354 40.2243L5.94017 40.2207L5.93755 40.218C5.54561 39.7391 5.30378 39.0869 5.30378 38.3707V33.0226H3.32085C2.41043 33.0226 1.57751 32.5696 0.975553 31.8393C0.375846 31.1122 0 30.1069 0 28.9971V12.0038C0 10.8936 0.3736 9.88689 0.974056 9.15842C1.01973 9.10304 1.06727 9.05085 1.11706 9.00228C1.70441 8.36594 2.47707 7.97742 3.32085 7.97742H5.30378V2.62207C5.30977 1.89949 5.5516 1.24227 5.94354 0.768421C5.96637 0.739826 5.98921 0.71214 6.01541 0.68763C6.40137 0.261889 6.91348 0 7.47275 0ZM19.739 3.37279C20.5087 3.37279 21.1331 4.13032 21.1331 5.06305C21.1331 5.99668 20.5087 6.75466 19.739 6.75466C18.969 6.75466 18.3446 5.99713 18.3446 5.06305C18.3446 4.13032 18.9686 3.37279 19.739 3.37279ZM14.8085 3.37279C15.5778 3.37279 16.2026 4.13032 16.2026 5.06305C16.2026 5.99668 15.5778 6.75466 14.8085 6.75466C14.0385 6.75466 13.4133 5.99713 13.4133 5.06305C13.4133 4.13032 14.0381 3.37279 14.8085 3.37279ZM9.87795 3.37279C10.6472 3.37279 11.272 4.13032 11.272 5.06305C11.272 5.99668 10.6472 6.75466 9.87795 6.75466C9.10791 6.75466 8.48275 5.99713 8.48275 5.06305C8.48275 4.13032 9.10791 3.37279 9.87795 3.37279ZM3.3216 10.157H42.6859C43.5244 10.157 44.2087 11.0166 44.2087 12.0038V28.9967C44.2087 29.9834 43.4997 30.843 42.6859 30.843H3.3216C2.50739 30.843 1.79837 30.0134 1.79837 28.9967V12.0038C1.79837 10.9876 2.48306 10.157 3.3216 10.157ZM38.7395 33.0226H7.26537V33.0689V38.3675V38.3684V38.3806L7.26649 38.3929L7.26724 38.4052L7.26799 38.4061L7.26911 38.4183L7.27098 38.4306H7.27173L7.2736 38.441H7.27435L7.27697 38.4533H7.27734L7.28034 38.4646L7.28408 38.4751L7.28857 38.4864H7.28932C7.29868 38.5077 7.30879 38.5273 7.32152 38.544L7.32489 38.5477C7.36157 38.5931 7.41061 38.6176 7.47201 38.6176H38.5287L38.5441 38.6167C38.6586 38.6167 38.7511 38.505 38.7511 38.3666V33.0684C38.7511 33.0553 38.7462 33.0435 38.7391 33.0348L38.7395 33.0226Z" fill="black"/>
<path d="M8.89038 22.414L11.6336 22.2057C11.6924 22.744 11.8144 23.1561 11.9975 23.4362C12.2958 23.8928 12.7203 24.1224 13.2733 24.1224C13.6847 24.1224 14.0025 24.0062 14.2249 23.7716C14.4491 23.5365 14.5603 23.2646 14.5603 22.9559C14.5603 22.6627 14.4558 22.3981 14.2447 22.1662C14.0336 21.9343 13.5417 21.7178 12.7686 21.5094C11.5015 21.1663 10.6 20.7065 10.0602 20.1337C9.51554 19.5636 9.24377 18.8352 9.24377 17.9483C9.24377 17.3673 9.38302 16.8181 9.66191 16.3011C9.94043 15.781 10.3586 15.3743 10.9182 15.0788C11.4779 14.7834 12.2442 14.6354 13.2175 14.6354C14.4128 14.6354 15.3228 14.9045 15.9499 15.446C16.5769 15.9848 16.949 16.8426 17.0688 18.0195L14.3514 18.2147C14.2795 17.7 14.1271 17.3256 13.8966 17.0927C13.6637 16.8576 13.3436 16.7419 12.9363 16.7419C12.6009 16.7419 12.3464 16.829 12.1764 17.0006C12.0065 17.1721 11.9219 17.3832 11.9219 17.6315C11.9219 17.8112 11.9915 17.9719 12.1285 18.1171C12.2614 18.2678 12.5837 18.4049 13.0932 18.5342C14.3563 18.8642 15.2596 19.1992 15.8039 19.5373C16.35 19.8755 16.7487 20.2926 16.9969 20.7941C17.2451 21.2934 17.3694 21.853 17.3694 22.4735C17.3694 23.1997 17.2039 23.8696 16.873 24.4851C16.5398 25.0978 16.0783 25.5649 15.4819 25.8812C14.8875 26.1976 14.1388 26.3564 13.2328 26.3564C11.6433 26.3564 10.542 25.9842 9.92995 25.2421C9.31714 24.5001 8.97087 23.5564 8.89038 22.414ZM27.1294 24.5023C27.4884 24.8055 27.7239 24.998 27.8347 25.0751C27.9983 25.1886 28.2225 25.3207 28.501 25.4705L27.7018 27.4321C27.299 27.1947 26.8984 26.9142 26.5042 26.5875C26.1082 26.2602 25.8315 26.0147 25.6747 25.8508C25.0368 26.1858 24.2379 26.3551 23.2755 26.3551C21.8537 26.3551 20.7325 25.9066 19.9116 25.0084C18.9405 23.9472 18.455 22.4562 18.455 20.534C18.455 18.6677 18.8795 17.2184 19.7285 16.184C20.5776 15.1519 21.762 14.6345 23.286 14.6345C24.838 14.6345 26.0359 15.1388 26.8808 16.1495C27.7257 17.1581 28.148 18.6046 28.148 20.4841C28.148 22.1576 27.8085 23.4965 27.1294 24.5023ZM24.9151 22.7045C25.1457 22.2052 25.2614 21.4581 25.2614 20.4632C25.2614 19.3199 25.0847 18.5047 24.7343 18.0136C24.3821 17.5253 23.8984 17.2797 23.28 17.2797C22.7031 17.2797 22.237 17.5303 21.8799 18.0295C21.5209 18.5283 21.342 19.3099 21.342 20.3711C21.342 21.6093 21.516 22.478 21.8646 22.9764C22.2153 23.4756 22.6941 23.7262 23.3017 23.7262C23.4975 23.7262 23.6828 23.7021 23.8569 23.6581C23.6128 23.3726 23.2294 23.1057 22.705 22.8525L23.1579 21.5939C23.4147 21.6497 23.615 21.7205 23.7565 21.8022C23.9003 21.8848 24.1792 22.1008 24.5947 22.4521C24.6928 22.5329 24.7995 22.6169 24.9151 22.7045ZM29.7027 14.8247H32.5897V23.3776H37.1096V26.1658H29.7027V14.8247Z" fill="#DA1A32"/>
</g>
<defs>
<clipPath id="clip0_603_18">
<rect width="46" height="41" fill="white"/>
</clipPath>
</defs>
</svg>
