<svg width="44" height="45" viewBox="0 0 44 45" fill="none" xmlns="http://www.w3.org/2000/svg">
<g clip-path="url(#clip0_311_2631)">
<path d="M18.7798 27.1724L19.1095 26.8455L19.0999 26.8378C18.6739 26.407 21.5097 23.5233 21.5097 23.5233L17.584 19.5981L4.18821 32.6062C3.23424 33.5621 2.77635 34.8811 2.90303 36.3225C3.02004 37.6729 3.64426 38.977 4.74668 40.0799C5.92162 41.2519 7.43164 41.8495 8.87252 41.8495C10.0915 41.8495 11.2601 41.4197 12.1343 40.5484L21.9294 30.7524L19.4582 28.2526C19.1487 27.9393 18.9297 27.5699 18.7798 27.1724Z" fill="#DA1A32"/>
<path d="M42.3922 8.36408L41.6084 6.48272L36.5614 11.5311C35.7022 12.3903 34.9484 12.826 34.3203 12.826C33.8407 12.826 33.3504 12.5663 32.7992 12.0166L32.7083 11.9276C31.8858 11.1051 31.25 10.141 33.2097 8.18035L38.2605 3.13002L36.3782 2.34624C32.5453 0.749664 28.5297 -0.261852 25.1195 3.15081L21.9974 6.26997C18.829 9.44232 17.7372 13.044 18.7584 16.6158L21.9061 19.8292L24.3662 17.3691C24.3662 17.3691 25.9366 18.1853 27.0584 18.9076L33.7672 25.7064C35.4102 25.2069 36.9893 24.2273 38.4728 22.7429L41.5871 19.6232C45.0022 16.2135 43.9926 12.196 42.3922 8.36408Z" fill="#DA1A32"/>
<path d="M38.728 33.9494L26.3379 21.3934C25.9317 20.98 25.4202 20.6551 24.8158 20.4283L24.0856 20.1537L21.8721 22.3682L10.1647 10.6613L11.2454 9.57965C11.5365 9.28954 11.6805 8.88387 11.6385 8.47578C11.5969 8.06673 11.374 7.69877 11.0302 7.47297L4.69954 3.31328C4.15848 2.95837 3.44143 3.03187 2.98257 3.49024L0.815448 5.66123C0.358525 6.11912 0.285514 6.83521 0.640898 7.3753L4.79914 13.7065C5.02398 14.0502 5.39242 14.2741 5.80099 14.3157C5.8474 14.3205 5.89334 14.3225 5.93976 14.3225C6.30046 14.3225 6.64811 14.1798 6.90582 13.9231L7.88253 12.9459L19.5889 24.6523L17.3706 26.8717L17.6471 27.6027C17.8691 28.1863 18.1882 28.6906 18.5973 29.104L30.997 41.6677C31.8132 42.4839 32.934 42.9331 34.1529 42.9331H34.1539C35.6016 42.9331 37.0637 42.3002 38.1835 41.1794L38.2478 41.1122C39.2424 40.1205 39.8522 38.8503 39.9658 37.5361C40.0867 36.1431 39.6447 34.868 38.728 33.9494ZM36.5159 39.417L36.4496 39.4871C35.7998 40.1369 34.9624 40.5107 34.1529 40.5107C33.7478 40.5107 33.1671 40.4135 32.7125 39.96L20.32 27.4021C20.3104 27.3924 20.3012 27.3832 20.2915 27.3735L24.5914 23.0727C24.5972 23.0794 24.6025 23.0857 24.6083 23.0915L37.0081 35.6557C37.4162 36.0657 37.6106 36.6595 37.5521 37.3262C37.4868 38.0733 37.1261 38.8077 36.5159 39.417Z" fill="black"/>
</g>
<defs>
<clipPath id="clip0_311_2631">
<rect width="44" height="44" fill="white" transform="translate(0 0.256958)"/>
</clipPath>
</defs>
</svg>
